<?xml version="1.0" encoding="utf-8"?>
<!-- Generator: Adobe Illustrator 27.3.1, SVG Export Plug-In . SVG Version: 6.00 Build 0)  -->
<svg version="1.1" id="Layer_1" xmlns="http://www.w3.org/2000/svg" xmlns:xlink="http://www.w3.org/1999/xlink" x="0px" y="0px"
	 viewBox="0 0 448.1 273" style="enable-background:new 0 0 448.1 273;" xml:space="preserve">
<style type="text/css">
	.st0{fill:#250E63;}
	.st1{fill:#5BBF00;}
	.st2{fill:#91259D;}
	.st3{fill:#F90097;}
	.st4{fill:#005780;}
	.st5{fill:#FF7B00;}
	.st6{fill:#B42634;}
	.st7{fill:#241F20;}
	.st8{fill:#6D6F71;}
	.st9{fill:#1F1A39;}
</style>
<polygon class="st0" points="221.2,59.7 207.5,26.3 235.1,26.3 "/>
<polygon class="st1" points="221.2,59.7 207.5,93 235.1,93 "/>
<polygon class="st2" points="221.2,59.7 235.1,26.4 254.6,45.9 "/>
<polygon class="st3" points="221.2,59.7 187.9,73.6 207.5,93.1 "/>
<polygon class="st4" points="221.3,59.7 254.6,46 254.6,73.6 "/>
<polygon class="st4" points="221.2,59.7 187.9,46 187.9,73.6 "/>
<polygon class="st5" points="221.2,59.7 254.5,73.5 235,93.1 "/>
<polygon class="st6" points="221.2,59.7 207.4,26.4 187.9,45.9 "/>
<polygon class="st7" points="67.7,153.3 43.5,177.6 43.5,128.9 "/>
<path class="st7" d="M113.6,152.4c0,7.1,1,12.2,3,15.3c2,3.1,5.2,4.7,9.6,4.7c4.4,0,7.7-1.6,9.7-4.7c2-3.1,3-8.2,3-15.3
	s-1-12.1-3-15.2c-2-3.1-5.2-4.6-9.7-4.6c-4.5,0-7.7,1.5-9.7,4.6S113.5,145.3,113.6,152.4 M218.8,161H247c0-2.1-0.1-4.5-0.1-7.1
	v-10.6h-28.5c-0.2-3.6-1.2-6.3-3.1-8.1c-1.8-1.8-4.5-2.6-8.1-2.6c-4.4,0-7.7,1.6-9.8,4.8c-2.1,3.2-3.1,8.2-3.1,15c0,7,1,12,3,15.2
	c2,3.2,5.1,4.8,9.5,4.8c3.7,0,6.5-0.9,8.5-2.8C217.3,167.7,218.5,164.8,218.8,161 M48.5,190.9v-7.3l30.3-30.3l-39.1-39.2h8.8v-4.8
	c0-8.6,2.1-15,6.4-19c4.2-4,10.9-6,19.9-6H92v19.2h-2.9c-4,0-6.6,0.6-8,1.8s-2.1,3.4-2.1,6.6v2.2h13v10.7c0.7-0.9,1.5-1.7,2.4-2.5
	c7.7-7.4,18.3-11.1,31.8-11.1s24.1,3.7,31.8,11c3.8,3.6,6.7,7.9,8.6,12.8c1.9-4.8,4.9-9.2,8.7-12.8c7.8-7.3,18.6-11,32.2-11
	c12.3,0,22.3,2.9,29.9,8.7c4.3,3.2,7.6,7.5,9.7,12.4v-18.4h30.4v39.7c0,5.8,0.8,9.9,2.4,12.1c1.6,2.2,4.3,3.4,8.1,3.4
	s6.7-1.3,8.6-3.9s2.9-6.5,2.9-11.7v-39.6h30.5v11.4c1.7-3.1,4.1-5.8,7.1-7.7c6.4-4.3,15.8-6.5,28.2-6.5c11.5,0,20.3,2,26.6,6.1
	s9.9,10.1,10.9,18.1h-27.5c-0.1-2.2-1.2-4.2-3-5.5c-1.9-1.4-4.3-2.2-6.7-2.1c-2.1-0.1-4.3,0.4-6.2,1.4c-1.4,0.8-2.2,2.4-2.1,4
	c0,3.1,3.9,5.5,11.7,7.1c3,0.6,5.3,1.1,7.1,1.6c11.7,2.7,19.6,5.9,23.5,9.5c3.9,3.6,5.9,8.8,5.9,15.5c0,8.8-3.4,15.4-10.3,19.9
	c-6.9,4.5-17,6.7-30.4,6.7c-12.4,0-21.9-2.2-28.4-6.7c-2.4-1.7-4.5-3.7-6.2-6.1v10.1h-28v-7.7c0-1,0.1-2,0.2-3c0.2-1,0.4-2,0.7-3
	c-2.9,4.9-7.1,9-12,11.9c-4.9,2.7-10.5,4.1-16.1,4c-5.2,0.1-10.3-1.2-14.8-3.8c-4.2-2.3-7.7-5.8-9.8-10.1c-1.3-2.6-2.2-5.4-2.6-8.4
	l-0.1-0.4c-1.9,5.8-5.5,10.9-10.4,14.6c-7.5,5.9-17.3,8.8-29.6,8.8c-13.5,0-24.3-3.7-32.2-11.1c-3.9-3.6-6.9-8-8.8-12.9
	c-1.9,4.9-4.9,9.4-8.7,13c-7.7,7.4-18.3,11-31.8,11c-13.4,0-24.1-3.7-31.9-11c-7.7-7.4-11.6-17.5-11.6-30.2c0-8.1,1.6-15.1,4.7-21
	h-8.5v59.5L48.5,190.9z M329.9,166.7H355c0,3.3,0.8,5.7,2.5,7.3s4.2,2.4,7.5,2.4c3.4,0,5.7-0.6,7.4-1.7c1.7-1,2.7-2.9,2.6-4.8
	c0-3.5-4-5.9-11.8-7.6c-1.7-0.3-3-0.6-4-0.8c-12.5-2.6-21-5.7-25.3-9.3c-1.6-1.3-2.9-2.9-4-4.7L329.9,166.7z"/>
<path class="st8" d="M187.2,228.4c0,4.4-2.3,6.6-6.8,6.6c-3.4,0-5.6-1.7-5.8-4.2h1.7c0.2,1.7,1.6,2.7,4,2.7c3.5,0,5.2-1.8,5.2-5.1
	v-1.8c-1,1.8-2.9,2.9-4.9,2.9c-3.9,0-6.4-2.8-6.4-7.6s2.5-7.6,6.4-7.6c2.1-0.1,4,1,4.9,2.8v-2.5h1.7L187.2,228.4z M180.8,228
	c3,0,4.9-2.2,4.9-6.1s-1.8-6.1-4.9-6.1c-3,0-4.9,2.1-4.9,6.1S177.8,228,180.8,228L180.8,228z"/>
<path class="st8" d="M196.5,214.7h1.6v2.5c0.7-1.8,2.5-3,4.4-2.9h0.2v1.8h-0.2c-2.9,0-4.4,1.7-4.4,5v8h-1.7L196.5,214.7z"/>
<path class="st8" d="M216.4,214.4c4.2,0,6.6,2.7,6.6,7.6c0,4.8-2.4,7.5-6.6,7.5c-4.2,0-6.6-2.7-6.6-7.5S212.2,214.4,216.4,214.4z
	 M216.4,228c3.1,0,4.9-2.1,4.9-6.1s-1.8-6.1-4.9-6.1c-3.1,0-4.9,2.2-4.9,6.1S213.3,228,216.4,228z"/>
<path class="st8" d="M242.7,229.1h-1.6v-2.3c-1,1.7-2.8,2.8-4.8,2.7c-3.3,0-4.9-1.7-4.9-5.1v-9.7h1.7v9.3c0,2.7,0.9,4,3.5,4
	c2.6,0,4.5-1.8,4.5-4.8v-8.5h1.7V229.1z"/>
<path class="st8" d="M252.1,214.7h1.7v2.6c0.9-1.9,2.9-3.1,5-3c3.9,0,6.4,2.8,6.4,7.6s-2.5,7.6-6.5,7.6c-2.1,0.1-4-1-4.9-2.9v8.3
	h-1.7L252.1,214.7z M258.5,228c3.1,0,4.9-2.1,4.9-6.1s-1.8-6.1-4.9-6.1c-3.1,0-4.8,2.1-4.8,6.1S255.5,228,258.5,228z"/>
<polygon class="st0" points="221.2,59.7 207.5,26.3 235.1,26.3 "/>
<polygon class="st1" points="221.2,59.7 207.5,93 235.1,93 "/>
<polygon class="st2" points="221.2,59.7 235.1,26.4 254.6,45.9 "/>
<polygon class="st3" points="221.2,59.7 187.9,73.6 207.5,93.1 "/>
<polygon class="st4" points="221.3,59.7 254.6,46 254.6,73.6 "/>
<polygon class="st4" points="221.2,59.7 187.9,46 187.9,73.6 "/>
<polygon class="st5" points="221.2,59.7 254.5,73.5 235,93.1 "/>
<polygon class="st6" points="221.2,59.7 207.4,26.4 187.9,45.9 "/>
<polygon class="st9" points="67.7,153.3 43.5,177.6 43.5,128.9 "/>
<path class="st9" d="M113.6,152.4c0,7.1,1,12.2,3,15.3c2,3.1,5.2,4.7,9.6,4.7c4.4,0,7.7-1.6,9.7-4.7c2-3.1,3-8.2,3-15.3
	s-1-12.1-3-15.2c-2-3.1-5.2-4.6-9.7-4.6c-4.5,0-7.7,1.5-9.7,4.6S113.5,145.3,113.6,152.4 M218.8,161H247c0-2.1-0.1-4.5-0.1-7.1
	v-10.6h-28.5c-0.2-3.6-1.2-6.3-3.1-8.1c-1.8-1.8-4.5-2.6-8.1-2.6c-4.4,0-7.7,1.6-9.8,4.8c-2.1,3.2-3.1,8.2-3.1,15c0,7,1,12,3,15.2
	c2,3.2,5.1,4.8,9.5,4.8c3.7,0,6.5-0.9,8.5-2.8C217.3,167.7,218.5,164.8,218.8,161 M48.5,190.9v-7.3l30.3-30.3l-39.1-39.2h8.8v-4.8
	c0-8.6,2.1-15,6.4-19c4.2-4,10.9-6,19.9-6H92v19.2h-2.9c-4,0-6.6,0.6-8,1.8s-2.1,3.4-2.1,6.6v2.2h13v10.7c0.7-0.9,1.5-1.7,2.4-2.5
	c7.7-7.4,18.3-11.1,31.8-11.1s24.1,3.7,31.8,11c3.8,3.6,6.7,7.9,8.6,12.8c1.9-4.8,4.9-9.2,8.7-12.8c7.8-7.3,18.6-11,32.2-11
	c12.3,0,22.3,2.9,29.9,8.7c4.3,3.2,7.6,7.5,9.7,12.4v-18.4h30.4v39.7c0,5.8,0.8,9.9,2.4,12.1c1.6,2.2,4.3,3.4,8.1,3.4
	s6.7-1.3,8.6-3.9s2.9-6.5,2.9-11.7v-39.6h30.5v11.4c1.7-3.1,4.1-5.8,7.1-7.7c6.4-4.3,15.8-6.5,28.2-6.5c11.5,0,20.3,2,26.6,6.1
	s9.9,10.1,10.9,18.1h-27.5c-0.1-2.2-1.2-4.2-3-5.5c-1.9-1.4-4.3-2.2-6.7-2.1c-2.1-0.1-4.3,0.4-6.2,1.4c-1.4,0.8-2.2,2.4-2.1,4
	c0,3.1,3.9,5.5,11.7,7.1c3,0.6,5.3,1.1,7.1,1.6c11.7,2.7,19.6,5.9,23.5,9.5c3.9,3.6,5.9,8.8,5.9,15.5c0,8.8-3.4,15.4-10.3,19.9
	c-6.9,4.5-17,6.7-30.4,6.7c-12.4,0-21.9-2.2-28.4-6.7c-2.4-1.7-4.5-3.7-6.2-6.1v10.1h-28v-7.7c0-1,0.1-2,0.2-3c0.2-1,0.4-2,0.7-3
	c-2.9,4.9-7.1,9-12,11.9c-4.9,2.7-10.5,4.1-16.1,4c-5.2,0.1-10.3-1.2-14.8-3.8c-4.2-2.3-7.7-5.8-9.8-10.1c-1.3-2.6-2.2-5.4-2.6-8.4
	l-0.1-0.4c-1.9,5.8-5.5,10.9-10.4,14.6c-7.5,5.9-17.3,8.8-29.6,8.8c-13.5,0-24.3-3.7-32.2-11.1c-3.9-3.6-6.9-8-8.8-12.9
	c-1.9,4.9-4.9,9.4-8.7,13c-7.7,7.4-18.3,11-31.8,11c-13.4,0-24.1-3.7-31.9-11c-7.7-7.4-11.6-17.5-11.6-30.2c0-8.1,1.6-15.1,4.7-21
	h-8.5v59.5L48.5,190.9z M329.9,166.7H355c0,3.3,0.8,5.7,2.5,7.3s4.2,2.4,7.5,2.4c3.4,0,5.7-0.6,7.4-1.7c1.7-1,2.7-2.9,2.6-4.8
	c0-3.5-4-5.9-11.8-7.6c-1.7-0.3-3-0.6-4-0.8c-12.5-2.6-21-5.7-25.3-9.3c-1.6-1.3-2.9-2.9-4-4.7L329.9,166.7z"/>
<path class="st9" d="M187.2,228.4c0,4.4-2.3,6.6-6.8,6.6c-3.4,0-5.6-1.7-5.8-4.2h1.7c0.2,1.7,1.6,2.7,4,2.7c3.5,0,5.2-1.8,5.2-5.1
	v-1.8c-1,1.8-2.9,2.9-4.9,2.9c-3.9,0-6.4-2.8-6.4-7.6s2.5-7.6,6.4-7.6c2.1-0.1,4,1,4.9,2.8v-2.5h1.7L187.2,228.4z M180.8,228
	c3,0,4.9-2.2,4.9-6.1s-1.8-6.1-4.9-6.1c-3,0-4.9,2.1-4.9,6.1S177.8,228,180.8,228L180.8,228z"/>
<path class="st9" d="M196.5,214.7h1.6v2.5c0.7-1.8,2.5-3,4.4-2.9h0.2v1.8h-0.2c-2.9,0-4.4,1.7-4.4,5v8h-1.7L196.5,214.7z"/>
<path class="st9" d="M216.4,214.4c4.2,0,6.6,2.7,6.6,7.6c0,4.8-2.4,7.5-6.6,7.5c-4.2,0-6.6-2.7-6.6-7.5S212.2,214.4,216.4,214.4z
	 M216.4,228c3.1,0,4.9-2.1,4.9-6.1s-1.8-6.1-4.9-6.1c-3.1,0-4.9,2.2-4.9,6.1S213.3,228,216.4,228z"/>
<path class="st9" d="M242.7,229.1h-1.6v-2.3c-1,1.7-2.8,2.8-4.8,2.7c-3.3,0-4.9-1.7-4.9-5.1v-9.7h1.7v9.3c0,2.7,0.9,4,3.5,4
	c2.6,0,4.5-1.8,4.5-4.8v-8.5h1.7V229.1z"/>
<path class="st9" d="M252.1,214.7h1.7v2.6c0.9-1.9,2.9-3.1,5-3c3.9,0,6.4,2.8,6.4,7.6s-2.5,7.6-6.5,7.6c-2.1,0.1-4-1-4.9-2.9v8.3
	h-1.7L252.1,214.7z M258.5,228c3.1,0,4.9-2.1,4.9-6.1s-1.8-6.1-4.9-6.1c-3.1,0-4.8,2.1-4.8,6.1S255.5,228,258.5,228z"/>
</svg>
