<svg xmlns="http://www.w3.org/2000/svg" width="126" height="50" viewBox="0 0 126 50">
    <defs>
        <style>
            .cls-1{fill:#000;stroke-width:0}
        </style>
    </defs>
    <path d="M5.44,41.38v1.18h-1.97v6.12h-1.48v-6.12H.02v-1.18h5.42Z" class="cls-1"></path>
    <path d="M10.93,45.66c0,.21-.01.4-.04.56h-4.28c.04.42.18.75.44.98.26.24.58.36.96.36.55,0,.94-.23,1.17-.7h1.6c-.17.56-.49,1.02-.97,1.38-.48.36-1.07.53-1.77.53-.56,0-1.07-.12-1.52-.37-.44-.25-.79-.6-1.05-1.06-.25-.45-.37-.98-.37-1.57s.12-1.13.37-1.58c.25-.45.59-.8,1.04-1.05.44-.24.96-.37,1.53-.37s1.05.12,1.49.36c.44.24.79.58,1.03,1.01.25.43.37.93.37,1.5ZM9.39,45.24c0-.38-.14-.68-.41-.9-.27-.23-.6-.35-.98-.35-.37,0-.68.11-.93.33-.25.22-.4.52-.45.91h2.78Z" class="cls-1"></path>
    <path d="M11.19,45.78c0-.6.12-1.12.37-1.57.25-.45.59-.8,1.03-1.05.44-.25.94-.38,1.5-.38.73,0,1.33.18,1.8.54.48.36.8.86.96,1.51h-1.6c-.08-.25-.23-.45-.43-.59-.2-.15-.44-.22-.74-.22-.42,0-.76.15-1,.46-.25.3-.37.73-.37,1.29s.12.98.37,1.29c.25.3.58.45,1,.45.6,0,.99-.27,1.17-.79h1.6c-.16.63-.48,1.13-.96,1.5s-1.08.55-1.8.55c-.56,0-1.07-.12-1.5-.37-.44-.25-.78-.6-1.03-1.05-.25-.45-.37-.98-.37-1.58Z" class="cls-1"></path>
    <path d="M20.79,42.8c.44,0,.84.1,1.18.29.35.19.61.47.8.85.2.37.3.82.3,1.34v3.4h-1.48v-3.2c0-.46-.12-.81-.35-1.06-.23-.25-.55-.38-.95-.38s-.73.13-.97.38c-.23.24-.35.6-.35,1.06v3.2h-1.48v-7.74h1.48v2.67c.19-.25.44-.45.76-.59.32-.15.67-.22,1.06-.22Z" class="cls-1"></path>
    <path d="M29.19,48.75c-.51,0-.98-.09-1.4-.26-.41-.17-.73-.43-.97-.75-.24-.33-.36-.71-.37-1.16h1.59c.02.3.13.54.32.71.2.17.47.26.8.26s.62-.08.81-.24c.2-.17.3-.38.3-.65,0-.22-.07-.39-.2-.53-.13-.14-.3-.25-.51-.32-.2-.08-.47-.17-.83-.27-.48-.14-.87-.28-1.17-.41-.3-.14-.55-.35-.77-.62-.21-.28-.32-.65-.32-1.11,0-.43.11-.81.33-1.13s.53-.56.92-.73c.39-.17.85-.26,1.35-.26.76,0,1.38.18,1.85.55.48.36.74.87.79,1.53h-1.63c-.01-.25-.12-.46-.33-.62-.2-.17-.46-.25-.79-.25-.29,0-.52.07-.7.22-.17.15-.25.36-.25.64,0,.2.06.36.19.49.13.13.3.23.49.31.2.08.47.17.83.27.48.14.87.28,1.17.42.3.14.56.35.78.63.22.28.33.65.33,1.1,0,.39-.1.75-.31,1.09-.2.33-.5.6-.9.81-.39.2-.86.29-1.41.29Z" class="cls-1"></path>
    <path d="M35.25,48.77c-.56,0-1.07-.12-1.52-.37-.45-.25-.81-.6-1.07-1.06-.25-.45-.38-.98-.38-1.57s.13-1.12.39-1.57c.27-.45.63-.8,1.09-1.05.46-.25.97-.38,1.53-.38s1.08.13,1.53.38c.46.24.82.59,1.08,1.05.27.45.4.98.4,1.57s-.14,1.12-.41,1.57c-.27.45-.63.81-1.1,1.06-.46.24-.97.37-1.54.37ZM35.25,47.5c.27,0,.52-.06.75-.19.24-.13.43-.33.57-.59.14-.26.21-.57.21-.94,0-.55-.15-.97-.44-1.27-.29-.3-.65-.45-1.07-.45s-.78.15-1.07.45c-.28.29-.42.71-.42,1.27s.14.98.41,1.28c.28.29.63.44,1.06.44Z" class="cls-1"></path>
    <path d="M40.43,40.94v7.74h-1.48v-7.74h1.48Z" class="cls-1"></path>
    <path d="M46.99,42.89v5.79h-1.49v-.73c-.19.25-.44.45-.75.6-.3.14-.63.21-.99.21-.46,0-.86-.09-1.22-.28-.35-.2-.63-.48-.84-.85-.2-.38-.3-.82-.3-1.34v-3.4h1.48v3.19c0,.46.12.82.35,1.07.23.24.55.37.95.37s.73-.12.96-.37c.23-.25.35-.61.35-1.07v-3.19h1.49Z" class="cls-1"></path>
    <path d="M49.73,44.09v2.8c0,.2.05.34.14.43.1.08.26.13.49.13h.69v1.23h-.93c-1.25,0-1.87-.6-1.87-1.8v-2.79h-.7v-1.2h.7v-1.43h1.49v1.43h1.31v1.2h-1.31Z" class="cls-1"></path>
    <path d="M52.42,42.19c-.26,0-.48-.08-.66-.24-.17-.17-.25-.37-.25-.62s.08-.45.25-.61c.18-.17.39-.25.66-.25s.48.08.65.25c.18.16.26.36.26.61s-.09.45-.26.62c-.17.16-.38.24-.65.24ZM53.15,42.89v5.79h-1.48v-5.79h1.48Z" class="cls-1"></path>
    <path d="M56.77,48.77c-.56,0-1.07-.12-1.52-.37-.45-.25-.81-.6-1.07-1.06-.25-.45-.38-.98-.38-1.57s.13-1.12.39-1.57c.27-.45.63-.8,1.09-1.05.46-.25.97-.38,1.53-.38s1.08.13,1.53.38c.46.24.82.59,1.08,1.05.27.45.4.98.4,1.57s-.14,1.12-.41,1.57c-.27.45-.63.81-1.1,1.06-.46.24-.97.37-1.54.37ZM56.77,47.5c.27,0,.52-.06.75-.19.24-.13.43-.33.57-.59.14-.26.21-.57.21-.94,0-.55-.15-.97-.44-1.27-.29-.3-.65-.45-1.07-.45s-.78.15-1.07.45c-.28.29-.42.71-.42,1.27s.14.98.41,1.28c.28.29.63.44,1.06.44Z" class="cls-1"></path>
    <path d="M63.72,42.8c.7,0,1.26.22,1.69.66.43.43.65,1.04.65,1.82v3.4h-1.48v-3.2c0-.46-.12-.81-.35-1.06-.23-.25-.55-.38-.95-.38s-.73.13-.97.38c-.23.24-.35.6-.35,1.06v3.2h-1.48v-5.79h1.48v.72c.2-.25.45-.45.75-.59.31-.15.65-.22,1.02-.22Z" class="cls-1"></path>
    <path d="M69.27,48.77c-.48,0-.91-.08-1.29-.25-.38-.17-.68-.41-.91-.7-.22-.29-.34-.62-.36-.97h1.49c.03.22.14.41.33.55.2.15.44.22.73.22s.5-.06.66-.17c.16-.11.24-.25.24-.43,0-.19-.1-.33-.3-.42-.19-.1-.5-.2-.92-.31-.44-.1-.8-.21-1.08-.32-.28-.11-.51-.28-.72-.51-.2-.23-.3-.54-.3-.93,0-.32.09-.61.28-.88.19-.27.46-.47.8-.63.35-.15.77-.23,1.24-.23.7,0,1.26.17,1.67.52.42.34.65.81.69,1.39h-1.42c-.02-.23-.12-.41-.3-.54-.17-.14-.4-.21-.69-.21-.27,0-.48.05-.62.15-.14.1-.21.23-.21.41,0,.2.1.35.3.45.2.1.5.2.92.3.42.1.77.21,1.05.32.28.11.51.29.71.52.2.23.31.54.32.92,0,.33-.1.63-.29.9-.18.26-.45.47-.8.63-.35.15-.75.22-1.22.22Z" class="cls-1"></path>
    <path d="M50.13,8.6s2.03,2.79,4.53,6.1c2.5,3.32,4.53,6.1,4.53,6.19s-2.03,2.88-4.53,6.17c-2.5,3.32-4.53,6.06-4.53,6.1,0,.07,1.72.11,3.84.11h3.84l2.69-3.56c1.48-1.95,2.76-3.47,2.85-3.41.07.07,1.28,1.66,2.67,3.49l2.54,3.36,6.63.04c3.64.04,6.74,0,6.87-.11.13-.09,1.35-1.66,2.72-3.47,1.37-1.84,2.54-3.34,2.63-3.36.09-.02,1.35,1.55,2.8,3.49l2.63,3.52h3.82c2.1,0,3.82-.07,3.82-.13s-2.05-2.85-4.55-6.17c-3.2-4.27-4.48-6.15-4.35-6.35.09-.18,2.14-2.92,4.55-6.1,2.39-3.19,4.35-5.84,4.35-5.91s-1.72-.11-3.84-.11h-3.84l-2.61,3.54c-1.46,1.92-2.67,3.52-2.74,3.54-.07,0-1.3-1.59-2.76-3.54l-2.63-3.54h-6.76l-6.74.02-2.54,3.43c-1.39,1.9-2.61,3.49-2.69,3.54-.09.07-1.35-1.5-2.83-3.45l-2.65-3.54h-3.87c-2.12,0-3.86.04-3.86.09ZM82.24,19.17l1.26,1.7-8.17,10.88-4.09-5.44-4.09-5.46.95-1.26c.51-.69,2.36-3.1,4.09-5.4l3.14-4.14,2.83,3.69c1.55,2.06,3.38,4.49,4.09,5.42Z" class="cls-1"></path>
    <path d="M97.84,43.9h26.28v-6.41h-26.28v6.41Z" class="cls-1"></path>
    <path d="M6.12,12.15c.78-1.16,1.86-2.11,3.22-2.84,1.39-.73,2.98-1.09,4.75-1.09,2.06,0,3.92.51,5.58,1.53,1.68,1.02,3.01,2.47,3.96,4.36.99,1.86,1.48,4.03,1.48,6.5s-.49,4.67-1.48,6.59c-.96,1.89-2.28,3.36-3.96,4.41-1.66,1.05-3.51,1.57-5.58,1.57-1.8,0-3.38-.35-4.75-1.05-1.34-.73-2.41-1.66-3.22-2.79v3.45H.02V.5h6.1v11.65ZM18.88,20.61c0-1.45-.3-2.7-.91-3.75-.58-1.08-1.36-1.89-2.35-2.44-.96-.55-2-.83-3.14-.83s-2.15.29-3.14.87c-.96.55-1.74,1.37-2.35,2.44-.58,1.08-.87,2.34-.87,3.8s.29,2.72.87,3.8c.61,1.08,1.39,1.91,2.35,2.49.99.55,2.03.83,3.14.83s2.18-.29,3.14-.87c.99-.58,1.77-1.41,2.35-2.49.61-1.08.91-2.36.91-3.84Z" class="cls-1"></path>
    <path d="M39.18,33.18c-2.32,0-4.41-.51-6.27-1.53-1.86-1.05-3.33-2.52-4.4-4.41-1.05-1.89-1.57-4.07-1.57-6.54s.54-4.65,1.61-6.54c1.1-1.89,2.6-3.34,4.49-4.36,1.89-1.05,3.99-1.57,6.32-1.57s4.43.52,6.32,1.57c1.89,1.02,3.37,2.47,4.44,4.36,1.1,1.89,1.66,4.07,1.66,6.54s-.57,4.65-1.7,6.54c-1.1,1.89-2.61,3.36-4.53,4.41-1.89,1.02-4.01,1.53-6.36,1.53ZM39.18,27.86c1.1,0,2.13-.26,3.09-.79.99-.55,1.77-1.37,2.35-2.44.58-1.08.87-2.39.87-3.93,0-2.3-.61-4.06-1.83-5.28-1.19-1.25-2.66-1.88-4.4-1.88s-3.21.63-4.4,1.88c-1.16,1.22-1.74,2.98-1.74,5.28s.57,4.07,1.7,5.32c1.16,1.22,2.61,1.83,4.36,1.83Z" class="cls-1"></path>
    <path d="M122.84,20.18c0,.87-.06,1.66-.17,2.36h-17.64c.15,1.75.75,3.11,1.83,4.1,1.07.99,2.4,1.48,3.96,1.48,2.27,0,3.88-.97,4.84-2.92h6.58c-.7,2.33-2.03,4.25-4.01,5.76-1.97,1.48-4.4,2.23-7.27,2.23-2.32,0-4.41-.51-6.27-1.53-1.83-1.05-3.27-2.52-4.31-4.41-1.02-1.89-1.52-4.07-1.52-6.54s.51-4.7,1.52-6.59,2.44-3.34,4.27-4.36c1.83-1.02,3.93-1.53,6.32-1.53s4.34.49,6.14,1.48c1.83.99,3.24,2.4,4.23,4.23,1.02,1.8,1.52,3.88,1.52,6.24ZM116.52,18.43c-.03-1.57-.6-2.82-1.7-3.75-1.1-.96-2.45-1.44-4.05-1.44-1.51,0-2.79.47-3.83,1.4-1.02.9-1.64,2.17-1.87,3.8h11.46Z" class="cls-1"></path>
    <path fill="#0050ff" stroke-width="0" d="M97.82,37.46h26.34v6.45h-26.34v-6.45Z"></path>
</svg>
