<svg width="151" height="38" viewBox="0 0 151 38" fill="none" xmlns="http://www.w3.org/2000/svg">
<g clip-path="url(#clip0_2193_6035)">
<path fill-rule="evenodd" clip-rule="evenodd" d="M83.4338 21.5175C83.4338 25.5742 81.6301 29.2053 78.7719 31.6621L78.2566 31.2846L75.4883 29.2293C77.9031 27.5096 79.473 24.6993 79.473 21.5175C79.473 18.3357 77.9271 15.5854 75.5482 13.8537L78.2506 11.8403L78.8199 11.4209C81.6481 13.8776 83.4338 17.4969 83.4338 21.5235V21.5175Z" fill="#A2F956"/>
<path fill-rule="evenodd" clip-rule="evenodd" d="M13.4881 8.0957C16.9216 8.0957 20.0435 9.36602 22.4223 11.4632C22.5002 11.5292 22.5721 11.5951 22.65 11.667C23.0095 11.9965 23.3571 12.3501 23.6746 12.7216C25.7419 15.0705 26.9823 18.1504 26.9823 21.5119C26.9823 21.8295 26.9703 22.1471 26.9463 22.4527H4.0027C4.0027 22.4527 4.02067 22.6624 4.04464 22.7523C4.64385 27.4021 8.64056 31.0034 13.4881 31.0034C17.1493 31.0034 20.3191 28.9541 21.925 25.9521H26.1434C26.0235 26.3715 25.8917 26.779 25.7179 27.1804C25.3764 28.0313 24.921 28.8282 24.3877 29.5832C23.5608 30.6798 22.5841 31.6445 21.4815 32.4235C20.373 33.2084 19.1207 33.8496 17.7904 34.263C17.5508 34.3349 17.3111 34.3949 17.0714 34.4608C15.9329 34.7664 14.7345 34.9342 13.4941 34.9342C12.7751 34.9342 12.068 34.8802 11.3789 34.7664C11.331 34.7664 11.301 34.7664 11.2651 34.7424C4.87155 33.6938 0 28.1691 0 21.5119C0 14.0998 6.04 8.0957 13.4881 8.0957ZM13.5421 12.0325C13.4282 12.0325 13.3084 12.0385 13.1945 12.0385C9.91087 12.1344 7.05266 13.884 5.41083 16.4786L4.36821 18.9473H22.644L21.9669 17.1737C21.0082 15.3221 19.4562 13.8241 17.5627 12.9373C17.2811 12.7815 16.9815 12.6557 16.6759 12.5358C15.7052 12.2123 14.6925 12.0325 13.6319 12.0325H13.5421Z" fill="#002F41"/>
<path fill-rule="evenodd" clip-rule="evenodd" d="M50.3515 8.44922L41.7169 30.8236L33.0344 8.44922H27.9531L38.5351 34.4488H44.8567L55.4867 8.44922H50.3574H50.3515Z" fill="#002F41"/>
<path d="M92.6533 0H87.8477V34.4484H92.6533V0Z" fill="#002F41"/>
<path fill-rule="evenodd" clip-rule="evenodd" d="M118.379 8.44922L109.75 30.8236L101.062 8.44922H95.9805L106.562 34.4488H112.89L123.508 8.44922H118.379Z" fill="#002F41"/>
<path fill-rule="evenodd" clip-rule="evenodd" d="M73.4464 30.3373L76.9877 32.9679L76.9457 32.9978L70.3784 37.8873V34.9333C70.2346 34.9393 70.0968 34.9393 69.953 34.9393C69.3837 34.9393 68.8205 34.9033 68.2572 34.8254C61.606 34.0045 56.4648 28.36 56.4648 21.517C56.4648 14.6741 61.606 9.02957 68.2572 8.20866C68.8205 8.13076 69.3837 8.09481 69.953 8.09481C70.0968 8.09481 70.2346 8.09481 70.3784 8.09481V5.22461L76.4843 9.76659L76.9877 10.1441L73.5302 12.7207L70.3784 15.0696V12.0436C70.2406 12.0256 70.0968 12.0256 69.959 12.0256C69.3777 12.0256 68.8145 12.0735 68.2632 12.1814C63.8051 12.9723 60.4196 16.8492 60.4196 21.511C60.4196 26.1729 63.7991 30.0437 68.2632 30.8287C68.8145 30.9366 69.3777 30.9845 69.959 30.9845C70.0968 30.9845 70.2406 30.9845 70.3784 30.9665V28.0364L73.4523 30.3254L73.4464 30.3373Z" fill="#0F6080"/>
<path fill-rule="evenodd" clip-rule="evenodd" d="M137.5 8.0957C140.933 8.0957 144.055 9.36602 146.434 11.4632C146.512 11.5292 146.584 11.5951 146.662 11.667C147.021 11.9965 147.369 12.3501 147.686 12.7216C149.754 15.0705 150.994 18.1504 150.994 21.5119H151C151 21.8295 150.982 22.1471 150.964 22.4587H128.014C128.014 22.4587 128.038 22.6684 128.056 22.7523C128.656 27.4081 132.658 31.0094 137.506 31.0094C141.161 31.0094 144.337 28.9601 145.937 25.9521H150.155C150.035 26.3775 149.903 26.785 149.736 27.1804C149.388 28.0313 148.939 28.8342 148.399 29.5832C147.579 30.6858 146.602 31.6445 145.493 32.4235C144.385 33.2144 143.138 33.8496 141.802 34.263C141.562 34.3349 141.323 34.3949 141.083 34.4608C139.945 34.7664 138.746 34.9402 137.506 34.9402C136.787 34.9402 136.08 34.8802 135.391 34.7664C135.343 34.7664 135.313 34.7664 135.277 34.7484C128.883 33.6938 124.012 28.1691 124.012 21.5179C124.012 14.1057 130.052 8.0957 137.5 8.0957ZM137.548 12.0325C137.44 12.0325 137.32 12.0385 137.206 12.0385C133.923 12.1344 131.058 13.884 129.423 16.4786L128.38 18.9473H146.656L145.979 17.1737C145.02 15.3221 143.468 13.8241 141.568 12.9373C141.287 12.7815 140.993 12.6557 140.682 12.5358C139.717 12.2123 138.698 12.0325 137.644 12.0325H137.548Z" fill="#002F41"/>
</g>
<defs>
<clipPath id="clip0_2193_6035">
<rect width="151" height="37.8878" fill="white"/>
</clipPath>
</defs>
</svg>
